<svg xmlns="http://www.w3.org/2000/svg" xmlns:xlink="http://www.w3.org/1999/xlink" width="1200px" height="600px" viewBox="0 0 1200 600">
    <g id="c5cd86a8-287d-4d7b-965a-dd88a72d20d7">
<g style="">
		<g id="c5cd86a8-287d-4d7b-965a-dd88a72d20d7-child-0">
<path style="stroke: none; stroke-width: 0; stroke-dasharray: none; stroke-linecap: butt; stroke-dashoffset: 0; stroke-linejoin: miter; stroke-miterlimit: 4; fill: rgb(0,0,0); fill-rule: nonzero; opacity: 1;" d="M0,1200v-600.00006h1200.00012v600.00006z" stroke-linecap="round"/>
</g>
</g>
</g>
<g id="06e763cd-8be3-45a0-8dcf-a2141e815208">
<g style="">
		<g id="06e763cd-8be3-45a0-8dcf-a2141e815208-child-0">
<path style="stroke: rgb(214,40,57); stroke-width: 5; stroke-dasharray: none; stroke-linecap: round; stroke-dashoffset: 0; stroke-linejoin: miter; stroke-miterlimit: 10; fill: none; fill-rule: nonzero; opacity: 1;" d="M289.3702,1000.82981c-10.14547,0 -18.37,-8.22453 -18.37,-18.37v-126.11676c0,-10.14547 8.22453,-18.37 18.37,-18.37h112.55487c10.14547,0 18.37,8.22453 18.37,18.37v126.11676c0,10.14547 -8.22453,18.37 -18.37,18.37z" stroke-linecap="round"/>
</g>
</g>
</g>
<g id="8430c5ad-d9f6-42e8-95dd-bfe294b266e6">
<g style="">
		<g id="8430c5ad-d9f6-42e8-95dd-bfe294b266e6-child-0">
<path style="stroke: rgb(193,193,193); stroke-width: 0; stroke-dasharray: none; stroke-linecap: butt; stroke-dashoffset: 0; stroke-linejoin: miter; stroke-miterlimit: 4; fill: rgb(255,255,255); fill-rule: nonzero; opacity: 1;" transform="matrix(0.230059 0 0 0.230059 345.647635 919.401426) matrix(0.992248 0 0 0.992248 0 0)  translate(-258, -258)" d="M 476.00 474.00 L 476.00 225.08 L 487.19 233.82 L 512.00 202.31 L 255.86 2.00 L 0.00 206.61 L 25.11 237.86 L 40.00 225.96 L 40.00 474.00 L 0.00 474.00 L 0.00 514.00 L 516.00 514.00 L 516.00 474.00 z M 80.00 194.00 L 256.14 53.24 L 436.00 193.81 L 436.00 474.00 L 80.00 474.00 z" stroke-linecap="round"/>
</g>
		<g id="8430c5ad-d9f6-42e8-95dd-bfe294b266e6-child-1">
<path style="stroke: rgb(193,193,193); stroke-width: 0; stroke-dasharray: none; stroke-linecap: butt; stroke-dashoffset: 0; stroke-linejoin: miter; stroke-miterlimit: 4; fill: rgb(255,255,255); fill-rule: nonzero; opacity: 1;" transform="matrix(0.230059 0 0 0.230059 345.647635 919.401426) matrix(0.992248 0 0 0.992248 -1.984489 79.379855)  translate(-256, -338)" d="M 236.00 358.00 L 236.00 338.00 C 236.00 304.92 209.08 278.00 176.00 278.00 L 156.00 278.00 L 156.00 238.00 L 116.00 238.00 L 116.00 438.00 L 156.00 438.00 L 156.00 398.00 L 356.00 398.00 L 356.00 438.00 L 396.00 438.00 L 396.00 358.00 z M 156.00 358.00 L 156.00 318.00 L 176.00 318.00 C 187.03 318.00 196.00 326.97 196.00 338.00 L 196.00 358.00 z" stroke-linecap="round"/>
</g>
		<g id="8430c5ad-d9f6-42e8-95dd-bfe294b266e6-child-2">
<path style="stroke: rgb(193,193,193); stroke-width: 0; stroke-dasharray: none; stroke-linecap: butt; stroke-dashoffset: 0; stroke-linejoin: miter; stroke-miterlimit: 4; fill: rgb(255,255,255); fill-rule: nonzero; opacity: 1;" transform="matrix(0.230059 0 0 0.230059 345.647635 919.401426) matrix(0.992248 0 0 0.992248 -1.984484 -79.379833)  translate(-256, -178)" d="M 256.00 238.00 C 289.08 238.00 316.00 211.08 316.00 178.00 C 316.00 144.92 289.08 118.00 256.00 118.00 C 222.92 118.00 196.00 144.92 196.00 178.00 C 196.00 211.08 222.92 238.00 256.00 238.00 z M 256.00 158.00 C 267.03 158.00 276.00 166.97 276.00 178.00 C 276.00 189.03 267.03 198.00 256.00 198.00 C 244.97 198.00 236.00 189.03 236.00 178.00 C 236.00 166.97 244.97 158.00 256.00 158.00 z" stroke-linecap="round"/>
</g>
</g>
</g>
<g style="" id="c1d1531c-2cca-4c8a-a802-01810526577c">
<g style=""><path d="M-413.02348 -5.52244Q-421.33948 -5.52244 -428.42348 -9.68044Q-435.50748 -13.83844 -439.74248 -20.84544Q-443.97748 -27.85244 -444.13148 -36.16844L-444.13148 -49.25844Q-443.97748 -57.72844 -439.81948 -64.73544Q-435.66148 -71.74244 -428.57748 -75.90044Q-421.49348 -80.05844 -413.02348 -80.05844Q-403.01348 -80.05844 -395.15948 -74.36044L-395.15948 -116.86444L-381.91548 -116.86444L-381.91548 -5.52244L-395.15948 -5.52244L-395.15948 -11.22044Q-403.01348 -5.52244 -413.02348 -5.52244ZM-413.02348 -18.61244Q-405.63148 -18.61244 -400.39548 -23.92544Q-395.15948 -29.23844 -395.15948 -36.63044L-395.15948 -48.95044Q-395.15948 -56.49644 -400.31848 -61.73244Q-405.47748 -66.96844 -413.02348 -66.96844Q-420.41548 -66.96844 -425.57448 -61.80944Q-430.73348 -56.65044 -430.88748 -49.25844L-430.88748 -36.16844Q-430.73348 -28.93044 -425.57448 -23.77144Q-420.41548 -18.61244 -413.02348 -18.61244Z" fill="rgb(255, 255, 255)" transform="matrix(1 0 0 1 893.120388 945.782507)"/><path d="M-337.87148 -5.52244Q-346.18748 -5.52244 -353.27148 -9.68044Q-360.35548 -13.83844 -364.59048 -20.84544Q-368.82548 -27.85244 -368.82548 -36.16844L-368.82548 -48.95044Q-368.82548 -57.42044 -364.66748 -64.58144Q-360.50948 -71.74244 -353.34848 -75.90044Q-346.18748 -80.05844 -337.87148 -80.05844Q-329.40148 -80.05844 -322.16348 -75.90044Q-314.92548 -71.74244 -310.69048 -64.58144Q-306.45548 -57.42044 -306.45548 -48.95044L-306.45548 -36.16844Q-306.60948 -27.85244 -310.84448 -20.76844Q-315.07948 -13.68444 -322.24048 -9.60344Q-329.40148 -5.52244 -337.87148 -5.52244ZM-337.87148 -18.76644Q-330.47948 -18.76644 -325.24348 -23.84844Q-320.00748 -28.93044 -319.69948 -36.16844L-319.69948 -48.95044Q-319.69948 -56.49644 -325.01248 -61.65544Q-330.32548 -66.81444 -337.87148 -66.81444Q-345.26348 -66.81444 -350.49948 -61.57844Q-355.73548 -56.34244 -355.73548 -48.95044L-355.73548 -36.63044Q-355.73548 -29.23844 -350.42248 -24.00244Q-345.10948 -18.76644 -337.87148 -18.76644Z" fill="rgb(255, 255, 255)" transform="matrix(1 0 0 1 893.120388 945.782507)"/><path d="M-293.36548 -80.05844L-280.27548 -80.05844L-280.27548 -74.20644Q-271.95948 -80.05844 -262.10348 -80.05844Q-254.86548 -80.05844 -248.39748 -76.82444Q-241.92948 -73.59044 -237.61748 -68.04644Q-233.30548 -73.59044 -226.91448 -76.82444Q-220.52348 -80.05844 -213.13148 -80.05844Q-204.66148 -80.05844 -197.57748 -75.97744Q-190.49348 -71.89644 -186.25848 -64.81244Q-182.02348 -57.72844 -182.02348 -49.41244L-182.02348 -5.52244L-195.11348 -5.52244L-195.11348 -49.41244Q-195.42148 -56.65044 -200.58048 -61.80944Q-205.73948 -66.96844 -213.13148 -66.96844Q-220.52348 -66.96844 -225.68248 -61.80944Q-230.84148 -56.65044 -230.99548 -49.41244L-230.99548 -5.52244L-244.23948 -5.52244L-244.23948 -48.95044Q-244.23948 -56.49644 -249.47548 -61.73244Q-254.71148 -66.96844 -262.10348 -66.96844Q-269.64948 -66.96844 -274.96248 -61.73244Q-280.27548 -56.49644 -280.27548 -48.95044L-280.27548 -5.52244L-293.36548 -5.52244Z" fill="rgb(255, 255, 255)" transform="matrix(1 0 0 1 893.120388 945.782507)"/><path d="M-138.28748 -5.52244Q-146.60348 -5.67644 -153.53348 -9.83444Q-160.46348 -13.99244 -164.62148 -20.99944Q-168.77948 -28.00644 -168.93348 -36.16844L-168.93348 -49.41244Q-168.77948 -57.72844 -164.62148 -64.73544Q-160.46348 -71.74244 -153.37948 -75.90044Q-146.29548 -80.05844 -137.82548 -80.05844Q-129.35548 -80.05844 -122.19448 -75.90044Q-115.03348 -71.74244 -110.87548 -64.58144Q-106.71748 -57.42044 -106.71748 -48.95044L-106.71748 -36.16844L-155.68948 -36.16844Q-155.53548 -29.08444 -150.45348 -24.00244Q-145.37148 -18.92044 -138.28748 -18.76644L-106.71748 -18.76644L-106.71748 -5.52244L-138.28748 -5.52244ZM-119.96148 -49.41244Q-120.11548 -56.65044 -125.27448 -61.80944Q-130.43348 -66.96844 -137.82548 -66.96844Q-145.21748 -66.96844 -150.37648 -61.80944Q-155.53548 -56.65044 -155.68948 -49.41244L-119.96148 -49.41244Z" fill="rgb(255, 255, 255)" transform="matrix(1 0 0 1 893.120388 945.782507)"/><path d="M-94.70548 -18.76644L-64.05948 -18.76644Q-56.82148 -18.92044 -51.73948 -24.00244Q-46.65748 -29.08444 -46.34948 -36.16844L-94.70548 -36.16844L-94.70548 -48.95044Q-94.70548 -57.42044 -90.54748 -64.50444Q-86.38948 -71.58844 -79.38248 -75.82344Q-72.37548 -80.05844 -64.05948 -80.05844L-33.10548 -80.05844L-33.10548 -66.81444L-64.05948 -66.81444Q-71.14348 -66.81444 -76.22548 -61.73244Q-81.30748 -56.65044 -81.61548 -49.41244L-33.10548 -49.41244L-33.10548 -36.63044Q-33.10548 -28.16044 -37.26348 -21.07644Q-41.42148 -13.99244 -48.50548 -9.83444Q-55.58948 -5.67644 -64.05948 -5.52244L-94.70548 -5.52244Z" fill="rgb(255, 255, 255)" transform="matrix(1 0 0 1 893.120388 945.782507)"/><path d="M11.24652 -5.52244Q2.93052 -5.67644 -4.15348 -9.83444Q-11.23748 -13.99244 -15.39548 -20.92244Q-19.55348 -27.85244 -19.55348 -36.16844L-19.55348 -95.61244L-6.46348 -95.61244L-6.46348 -80.05844L18.17652 -80.05844L18.17652 -66.81444L-6.46348 -66.81444L-6.46348 -36.63044Q-6.46348 -29.39244 -1.30448 -24.15644Q3.85452 -18.92044 11.24652 -18.76644L24.18252 -18.76644L24.18252 -5.52244L11.24652 -5.52244Z" fill="rgb(255, 255, 255)" transform="matrix(1 0 0 1 893.120388 945.782507)"/><path d="M33.42252 -116.86444L46.66652 -116.86444L46.66652 -5.52244L33.42252 -5.52244Z" fill="rgb(214, 40, 57)" transform="matrix(1 0 0 1 893.120388 945.782507)"/><path d="M93.02052 -5.52244Q84.70452 -5.52244 77.62052 -9.68044Q70.53652 -13.83844 66.30152 -20.84544Q62.06652 -27.85244 62.06652 -36.16844L62.06652 -85.60244Q62.06652 -94.07244 66.22452 -101.23344Q70.38252 -108.39444 77.54352 -112.55244Q84.70452 -116.71044 93.17452 -116.71044Q101.64452 -116.71044 108.80552 -112.55244Q115.96652 -108.39444 120.12452 -101.23344Q124.28252 -94.07244 124.28252 -85.60244L124.28252 -36.16844L124.43652 -36.16844Q124.12852 -26.15844 118.27652 -18.30444L123.97452 -5.52244L111.80852 -5.52244L109.65252 -10.29644Q102.26052 -5.52244 93.17452 -5.52244L93.02052 -5.52244ZM93.02052 -18.76644Q99.48852 -18.76644 104.26252 -22.61644L87.01452 -61.42444L99.33452 -61.42444L111.03852 -34.78244Q111.19252 -35.24444 111.19252 -36.16844L111.34652 -36.16844L111.34652 -85.60244Q111.34652 -93.14844 106.03352 -98.38444Q100.72052 -103.62044 93.17452 -103.62044Q85.62852 -103.62044 80.31552 -98.38444Q75.00252 -93.14844 75.00252 -85.60244L75.00252 -36.63044L75.15652 -36.63044Q75.15652 -29.23844 80.46952 -24.00244Q85.78252 -18.76644 93.02052 -18.76644Z" fill="rgb(214, 40, 57)" transform="matrix(1 0 0 1 893.120388 945.782507)"/></g></g>
<g id="f42c0b01-372b-4e0a-b973-f9ce28b30eac">
<g style="">
		<g id="f42c0b01-372b-4e0a-b973-f9ce28b30eac-child-0">
<path style="stroke: rgb(193,193,193); stroke-width: 0; stroke-dasharray: none; stroke-linecap: butt; stroke-dashoffset: 0; stroke-linejoin: miter; stroke-miterlimit: 4; fill: rgb(214,40,57); fill-rule: nonzero; opacity: 1;" transform="matrix(0.298952 0 0 0.298952 604.777921 206.670872) matrix(0.992248 0 0 0.992248 0 0)  translate(-258, -258)" d="M 476.00 474.00 L 476.00 225.08 L 487.19 233.82 L 512.00 202.31 L 255.86 2.00 L 0.00 206.61 L 25.11 237.86 L 40.00 225.96 L 40.00 474.00 L 0.00 474.00 L 0.00 514.00 L 516.00 514.00 L 516.00 474.00 z M 80.00 194.00 L 256.14 53.24 L 436.00 193.81 L 436.00 474.00 L 80.00 474.00 z" stroke-linecap="round"/>
</g>
		<g id="f42c0b01-372b-4e0a-b973-f9ce28b30eac-child-1">
<path style="stroke: rgb(193,193,193); stroke-width: 0; stroke-dasharray: none; stroke-linecap: butt; stroke-dashoffset: 0; stroke-linejoin: miter; stroke-miterlimit: 4; fill: rgb(214,40,57); fill-rule: nonzero; opacity: 1;" transform="matrix(0.298952 0 0 0.298952 604.777921 206.670872) matrix(0.992248 0 0 0.992248 -1.984489 79.379855)  translate(-256, -338)" d="M 236.00 358.00 L 236.00 338.00 C 236.00 304.92 209.08 278.00 176.00 278.00 L 156.00 278.00 L 156.00 238.00 L 116.00 238.00 L 116.00 438.00 L 156.00 438.00 L 156.00 398.00 L 356.00 398.00 L 356.00 438.00 L 396.00 438.00 L 396.00 358.00 z M 156.00 358.00 L 156.00 318.00 L 176.00 318.00 C 187.03 318.00 196.00 326.97 196.00 338.00 L 196.00 358.00 z" stroke-linecap="round"/>
</g>
		<g id="f42c0b01-372b-4e0a-b973-f9ce28b30eac-child-2">
<path style="stroke: rgb(193,193,193); stroke-width: 0; stroke-dasharray: none; stroke-linecap: butt; stroke-dashoffset: 0; stroke-linejoin: miter; stroke-miterlimit: 4; fill: rgb(214,40,57); fill-rule: nonzero; opacity: 1;" transform="matrix(0.298952 0 0 0.298952 604.777921 206.670872) matrix(0.992248 0 0 0.992248 -1.984484 -79.379833)  translate(-256, -178)" d="M 256.00 238.00 C 289.08 238.00 316.00 211.08 316.00 178.00 C 316.00 144.92 289.08 118.00 256.00 118.00 C 222.92 118.00 196.00 144.92 196.00 178.00 C 196.00 211.08 222.92 238.00 256.00 238.00 z M 256.00 158.00 C 267.03 158.00 276.00 166.97 276.00 178.00 C 276.00 189.03 267.03 198.00 256.00 198.00 C 244.97 198.00 236.00 189.03 236.00 178.00 C 236.00 166.97 244.97 158.00 256.00 158.00 z" stroke-linecap="round"/>
</g>
</g>
</g>
<g style="" id="bb34442c-5c3a-44bc-8ced-9a50361a6404">
<g style=""><path d="M-253.82119 48.42720Q-262.14572 48.42720 -269.23699 44.26494Q-276.32826 40.10267 -280.56761 33.08848Q-284.80695 26.07429 -284.96111 17.74976L-284.96111 4.64632Q-284.80695 -3.83237 -280.64469 -10.84656Q-276.48242 -17.86075 -269.39115 -22.02302Q-262.29988 -26.18528 -253.82119 -26.18528Q-243.80092 -26.18528 -235.93886 -20.48144L-235.93886 -63.02905L-222.68127 -63.02905L-222.68127 48.42720L-235.93886 48.42720L-235.93886 42.72336Q-243.80092 48.42720 -253.82119 48.42720ZM-253.82119 35.32377Q-246.42161 35.32377 -241.18023 30.00532Q-235.93886 24.68687 -235.93886 17.28728L-235.93886 4.95464Q-235.93886 -2.59910 -241.10315 -7.84048Q-246.26745 -13.08185 -253.82119 -13.08185Q-261.22078 -13.08185 -266.38507 -7.91756Q-271.54936 -2.75326 -271.70352 4.64632L-271.70352 17.74976Q-271.54936 24.99518 -266.38507 30.15948Q-261.22078 35.32377 -253.82119 35.32377Z" fill="rgb(0, 0, 0)" transform="matrix(1 0 0 1 600.000001 345.638396)"/><path d="M-178.59207 48.42720Q-186.91661 48.42720 -194.00788 44.26494Q-201.09915 40.10267 -205.33849 33.08848Q-209.57784 26.07429 -209.57784 17.74976L-209.57784 4.95464Q-209.57784 -3.52405 -205.41557 -10.69240Q-201.25330 -17.86075 -194.08496 -22.02302Q-186.91661 -26.18528 -178.59207 -26.18528Q-170.11338 -26.18528 -162.86796 -22.02302Q-155.62253 -17.86075 -151.38318 -10.69240Q-147.14384 -3.52405 -147.14384 4.95464L-147.14384 17.74976Q-147.29799 26.07429 -151.53734 33.16556Q-155.77669 40.25683 -162.94503 44.34201Q-170.11338 48.42720 -178.59207 48.42720ZM-178.59207 35.16961Q-171.19249 35.16961 -165.95112 30.08240Q-160.70974 24.99518 -160.40143 17.74976L-160.40143 4.95464Q-160.40143 -2.59910 -165.71988 -7.76340Q-171.03833 -12.92769 -178.59207 -12.92769Q-185.99166 -12.92769 -191.23303 -7.68632Q-196.47441 -2.44495 -196.47441 4.95464L-196.47441 17.28728Q-196.47441 24.68687 -191.15595 29.92824Q-185.83750 35.16961 -178.59207 35.16961Z" fill="rgb(0, 0, 0)" transform="matrix(1 0 0 1 600.000001 345.638396)"/><path d="M-134.04040 -26.18528L-120.93697 -26.18528L-120.93697 -20.32728Q-112.61244 -26.18528 -102.74632 -26.18528Q-95.50090 -26.18528 -89.02626 -22.94796Q-82.55162 -19.71065 -78.23520 -14.16096Q-73.91877 -19.71065 -67.52122 -22.94796Q-61.12366 -26.18528 -53.72407 -26.18528Q-45.24538 -26.18528 -38.15411 -22.10009Q-31.06284 -18.01491 -26.82350 -10.92364Q-22.58415 -3.83237 -22.58415 4.49216L-22.58415 48.42720L-35.68758 48.42720L-35.68758 4.49216Q-35.99590 -2.75326 -41.16019 -7.91756Q-46.32449 -13.08185 -53.72407 -13.08185Q-61.12366 -13.08185 -66.28795 -7.91756Q-71.45225 -2.75326 -71.60640 4.49216L-71.60640 48.42720L-84.86399 48.42720L-84.86399 4.95464Q-84.86399 -2.59910 -90.10537 -7.84048Q-95.34674 -13.08185 -102.74632 -13.08185Q-110.30007 -13.08185 -115.61852 -7.84048Q-120.93697 -2.59910 -120.93697 4.95464L-120.93697 48.42720L-134.04040 48.42720Z" fill="rgb(0, 0, 0)" transform="matrix(1 0 0 1 600.000001 345.638396)"/><path d="M21.19673 48.42720Q12.87220 48.27304 5.93508 44.11078Q-1.00203 39.94851 -5.16429 32.93432Q-9.32656 25.92013 -9.48072 17.74976L-9.48072 4.49216Q-9.32656 -3.83237 -5.16429 -10.84656Q-1.00203 -17.86075 6.08924 -22.02302Q13.18051 -26.18528 21.65920 -26.18528Q30.13789 -26.18528 37.30624 -22.02302Q44.47459 -17.86075 48.63686 -10.69240Q52.79912 -3.52405 52.79912 4.95464L52.79912 17.74976L3.77687 17.74976Q3.93103 24.84102 9.01824 29.92824Q14.10546 35.01545 21.19673 35.16961L52.79912 35.16961L52.79912 48.42720L21.19673 48.42720ZM39.54153 4.49216Q39.38738 -2.75326 34.22308 -7.91756Q29.05879 -13.08185 21.65920 -13.08185Q14.25962 -13.08185 9.09532 -7.91756Q3.93103 -2.75326 3.77687 4.49216L39.54153 4.49216Z" fill="rgb(0, 0, 0)" transform="matrix(1 0 0 1 600.000001 345.638396)"/><path d="M64.82345 35.16961L95.50090 35.16961Q102.74632 35.01545 107.83354 29.92824Q112.92075 24.84102 113.22907 17.74976L64.82345 17.74976L64.82345 4.95464Q64.82345 -3.52405 68.98572 -10.61532Q73.14798 -17.70659 80.16217 -21.94594Q87.17636 -26.18528 95.50090 -26.18528L126.48666 -26.18528L126.48666 -12.92769L95.50090 -12.92769Q88.40963 -12.92769 83.32241 -7.84048Q78.23520 -2.75326 77.92688 4.49216L126.48666 4.49216L126.48666 17.28728Q126.48666 25.76597 122.32439 32.85724Q118.16213 39.94851 111.07086 44.11078Q103.97959 48.27304 95.50090 48.42720L64.82345 48.42720Z" fill="rgb(0, 0, 0)" transform="matrix(1 0 0 1 600.000001 345.638396)"/><path d="M170.88417 48.42720Q162.55964 48.27304 155.46837 44.11078Q148.37710 39.94851 144.21483 33.01140Q140.05257 26.07429 140.05257 17.74976L140.05257 -41.75524L153.15600 -41.75524L153.15600 -26.18528L177.82128 -26.18528L177.82128 -12.92769L153.15600 -12.92769L153.15600 17.28728Q153.15600 24.53271 158.32029 29.77408Q163.48459 35.01545 170.88417 35.16961L183.83345 35.16961L183.83345 48.42720L170.88417 48.42720Z" fill="rgb(0, 0, 0)" transform="matrix(1 0 0 1 600.000001 345.638396)"/><path d="M193.08293 -63.02905L206.34052 -63.02905L206.34052 48.42720L193.08293 48.42720Z" fill="rgb(214, 40, 57)" transform="matrix(1 0 0 1 600.000001 345.638396)"/><path d="M252.74208 48.42720Q244.41755 48.42720 237.32628 44.26494Q230.23501 40.10267 225.99567 33.08848Q221.75632 26.07429 221.75632 17.74976L221.75632 -31.73497Q221.75632 -40.21366 225.91859 -47.38201Q230.08086 -54.55036 237.24920 -58.71263Q244.41755 -62.87489 252.89624 -62.87489Q261.37493 -62.87489 268.54328 -58.71263Q275.71163 -54.55036 279.87390 -47.38201Q284.03616 -40.21366 284.03616 -31.73497L284.03616 17.74976L284.19032 17.74976Q283.88201 27.77003 278.02400 35.63209L283.72785 48.42720L271.54936 48.42720L269.39115 43.64830Q261.99157 48.42720 252.89624 48.42720L252.74208 48.42720ZM252.74208 35.16961Q259.21672 35.16961 263.99562 31.31566L246.72992 -7.53216L259.06256 -7.53216L270.77857 19.13718Q270.93273 18.67470 270.93273 17.74976L271.08689 17.74976L271.08689 -31.73497Q271.08689 -39.28871 265.76844 -44.53009Q260.44999 -49.77146 252.89624 -49.77146Q245.34250 -49.77146 240.02405 -44.53009Q234.70560 -39.28871 234.70560 -31.73497L234.70560 17.28728L234.85975 17.28728Q234.85975 24.68687 240.17821 29.92824Q245.49666 35.16961 252.74208 35.16961Z" fill="rgb(214, 40, 57)" transform="matrix(1 0 0 1 600.000001 345.638396)"/></g></g>
<g style="" id="02063596-171c-49e0-a5fc-4d4935ad9209">
<g style=""><path d="M-254.99321 7.47545Q-254.37554 2.42663 -260.39116 0.06334L-265.52056 -1.78968L-267.18560 -2.46107Q-274.81255 -5.71058 -274.24858 -12.04847Q-274.00688 -15.16371 -272.04644 -17.52699Q-270.08599 -19.89027 -266.87676 -21.16590Q-263.66753 -22.44154 -260.06890 -22.36097Q-256.60454 -22.28041 -253.87871 -20.76307Q-251.15288 -19.24574 -249.79668 -16.61390Q-248.44048 -13.98207 -248.73589 -10.67884L-252.03911 -10.67884Q-251.66313 -14.65345 -253.90557 -17.04359Q-256.14800 -19.43373 -260.23003 -19.54115Q-264.47319 -19.59486 -267.49443 -17.59413Q-270.51567 -15.59339 -270.94536 -12.12904Q-271.29448 -9.36292 -269.32061 -7.41590Q-267.34673 -5.46888 -262.45903 -4.01869Q-256.22856 -2.03138 -253.79814 0.73473Q-251.36772 3.50084 -251.68999 7.39489Q-251.98540 10.61754 -253.94585 12.99425Q-255.90630 15.37096 -259.18267 16.63317Q-262.45903 17.89538 -266.21880 17.81481Q-269.95171 17.78795 -272.94609 16.28405Q-275.94048 14.78014 -277.43096 12.16173Q-278.92144 9.54333 -278.62603 6.10583L-275.34966 6.10583Q-275.75249 10.18786 -273.16094 12.59142Q-270.56938 14.99499 -266.05767 15.04870Q-261.54595 15.10241 -258.47100 13.00768Q-255.39604 10.91295 -254.99321 7.47545Z" fill="rgb(0, 0, 0)" transform="matrix(1 0 0 1 606.080749 425.140599)"/><path d="M-238.49106 -11.77992L-239.40415 -7.05335Q-235.48325 -12.42445 -229.54819 -12.31703Q-226.48667 -12.26332 -224.45908 -10.78626Q-222.43149 -9.30921 -221.94810 -6.67738Q-219.96079 -9.38978 -217.31553 -10.88026Q-214.67026 -12.37074 -211.55503 -12.31703Q-207.41929 -12.23646 -205.41855 -9.59120Q-203.41782 -6.94593 -203.76694 -2.27308L-203.82065 -1.65541L-207.01646 17.27770L-210.21226 17.27770L-207.04331 -1.70912Q-206.88218 -3.29359 -207.01646 -4.71693Q-207.55356 -9.47035 -212.44126 -9.55091Q-215.71763 -9.60462 -218.47031 -7.41590Q-221.22300 -5.22718 -221.92124 -1.95082L-225.25132 17.27770L-228.44712 17.27770L-225.22446 -1.95082Q-224.44565 -9.36292 -230.67612 -9.55091Q-233.76450 -9.60462 -236.42319 -7.61732Q-239.08188 -5.63001 -239.99497 -2.67591L-243.43247 17.27770L-246.62827 17.27770L-241.57944 -11.77992Z" fill="rgb(0, 0, 0)" transform="matrix(1 0 0 1 606.080749 425.140599)"/><path d="M-180.28237 17.27770Q-180.41665 16.25719 -180.36294 15.23668L-180.12124 13.22252Q-182.13540 15.39782 -184.72695 16.63317Q-187.31851 17.86852 -190.32632 17.81481Q-194.00552 17.76110 -196.30166 15.49181Q-198.59780 13.22252 -198.35610 9.78502Q-198.14126 6.91149 -196.38223 4.80333Q-194.62319 2.69518 -191.37368 1.52697Q-188.12417 0.35875 -184.09585 0.35875L-178.16079 0.38561L-177.67739 -2.94447Q-177.35513 -5.92542 -178.96646 -7.72474Q-180.57778 -9.52406 -183.71987 -9.63148Q-186.88882 -9.68519 -189.23867 -8.06043Q-191.58853 -6.43568 -192.17935 -3.77699L-195.32144 -3.77699Q-194.78433 -7.59046 -191.40054 -9.99403Q-188.01675 -12.39759 -183.39761 -12.34388Q-178.91274 -12.23646 -176.48232 -9.63148Q-174.05190 -7.02650 -174.50845 -2.86390L-176.92544 11.74547L-177.14028 14.08190Q-177.22085 15.53209 -176.92544 16.95543L-176.97915 17.27770ZM-189.78921 14.99499Q-186.83511 15.10241 -184.13613 13.58507Q-181.43716 12.06774 -179.66470 9.27477L-178.56362 2.85631L-183.69302 2.82946Q-188.58071 2.82946 -191.66909 4.56164Q-194.75747 6.29381 -195.07974 9.51647Q-195.32144 11.87975 -193.83096 13.41051Q-192.34048 14.94127 -189.78921 14.99499Z" fill="rgb(0, 0, 0)" transform="matrix(1 0 0 1 606.080749 425.140599)"/><path d="M-151.21187 -9.06751Q-152.25923 -9.28236 -153.33345 -9.30921Q-156.39497 -9.30921 -158.94624 -7.44276Q-161.49751 -5.57630 -162.35688 -2.70277L-165.79438 17.27770L-168.96333 17.27770L-163.91450 -11.77992L-160.77241 -11.77992L-161.73921 -7.16078Q-160.15474 -9.73890 -157.91230 -11.08167Q-155.66987 -12.42445 -152.98433 -12.37074Q-152.04438 -12.37074 -150.78218 -11.99476Z" fill="rgb(0, 0, 0)" transform="matrix(1 0 0 1 606.080749 425.140599)"/><path d="M-137.61011 -19.21888L-138.89917 -11.77992L-133.07153 -11.77992L-133.52808 -9.14808L-139.35571 -9.14808L-142.57837 10.24157L-142.63208 11.90661Q-142.63208 14.83385 -139.94653 14.91442Q-139.11401 14.94127 -137.34155 14.72643L-137.47583 17.35827Q-139.06030 17.81481 -140.69849 17.76110Q-143.51831 17.70739 -144.80737 15.78722Q-146.09644 13.86706 -145.74731 10.21471L-142.55151 -9.14808L-147.76147 -9.14808L-147.27808 -11.77992L-142.12183 -11.77992L-140.80591 -19.21888Z" fill="rgb(0, 0, 0)" transform="matrix(1 0 0 1 606.080749 425.140599)"/><path d="" fill="rgb(0, 0, 0)" transform="matrix(1 0 0 1 606.080749 425.140599)"/><path d="M-113.54868 17.27770L-116.77134 17.27770L-109.60093 -23.97230L-106.37827 -23.97230Z" fill="rgb(0, 0, 0)" transform="matrix(1 0 0 1 606.080749 425.140599)"/><path d="M-100.77944 17.27770L-104.00210 17.27770L-98.92642 -11.77992L-95.73062 -11.77992ZM-98.04019 -20.18568Q-97.90591 -21.93128 -95.73062 -22.38783Q-94.68325 -22.19984 -94.24014 -21.72987Q-93.79702 -21.25990 -93.66274 -20.18568Q-93.93130 -19.16517 -94.44155 -18.69520Q-94.95181 -18.22523 -95.97231 -18.01039Q-98.14761 -18.33265 -98.04019 -20.18568Z" fill="rgb(0, 0, 0)" transform="matrix(1 0 0 1 606.080749 425.140599)"/><path d="M-81.86030 12.73913L-69.45308 -11.77992L-66.06929 -11.77992L-81.13521 17.27770L-83.74019 17.27770L-89.78267 -11.77992L-86.61372 -11.77992Z" fill="rgb(0, 0, 0)" transform="matrix(1 0 0 1 606.080749 425.140599)"/><path d="M-61.54468 17.27770L-64.76733 17.27770L-59.69165 -11.77992L-56.49585 -11.77992ZM-58.80542 -20.18568Q-58.67114 -21.93128 -56.49585 -22.38783Q-55.44849 -22.19984 -55.00537 -21.72987Q-54.56226 -21.25990 -54.42798 -20.18568Q-54.69653 -19.16517 -55.20679 -18.69520Q-55.71704 -18.22523 -56.73755 -18.01039Q-58.91284 -18.33265 -58.80542 -20.18568Z" fill="rgb(0, 0, 0)" transform="matrix(1 0 0 1 606.080749 425.140599)"/><path d="M-44.23687 -11.77992L-45.20366 -6.81166Q-43.27007 -9.49720 -40.73223 -10.93397Q-38.19438 -12.37074 -35.29399 -12.31703Q-31.10454 -12.20960 -29.19780 -9.38978Q-27.29106 -6.56996 -27.85503 -1.62855L-31.02397 17.27770L-34.19292 17.27770L-31.02397 -1.68226Q-30.86284 -3.21302 -30.97026 -4.63636Q-31.42681 -9.41664 -36.18022 -9.55091Q-39.00005 -9.60462 -41.44390 -7.87245Q-43.88774 -6.14027 -45.74077 -2.64906L-49.17827 17.27770L-52.34722 17.27770L-47.29839 -11.77992Z" fill="rgb(0, 0, 0)" transform="matrix(1 0 0 1 606.080749 425.140599)"/><path d="M-7.75425 -12.34388Q-5.14927 -12.26332 -3.00083 -11.10853Q-0.85239 -9.95375 0.38296 -7.59046L1.37661 -11.77992L4.35757 -11.77992L-0.53013 16.76745Q-1.04038 20.41979 -2.83970 23.21276Q-4.63901 26.00573 -7.44541 27.49621Q-10.25181 28.98668 -13.68931 28.87926Q-16.42856 28.82555 -18.92612 27.50963Q-21.45054 26.16686 -22.98130 23.77672L-20.99399 21.89684Q-18.22788 26.05944 -13.76987 26.16686Q-9.79526 26.27428 -7.12314 23.76330Q-4.45103 21.25231 -3.75278 16.92858L-3.05454 13.54479Q-6.92173 17.97594 -12.37339 17.81481Q-16.45542 17.70739 -18.72471 14.68615Q-20.99399 11.66491 -21.10142 6.45495Q-21.26255 1.64782 -19.49009 -3.05189Q-17.71763 -7.75160 -14.66953 -10.10145Q-11.62144 -12.45130 -7.75425 -12.34388ZM-17.74448 3.23229L-17.90562 5.72985Q-17.98618 10.13415 -16.37485 12.53771Q-14.76353 14.94127 -11.62144 15.04870Q-8.93589 15.15612 -6.59946 13.78649Q-4.26304 12.41686 -2.57114 9.73131L-0.28843 -3.83070Q-1.01353 -6.43568 -2.79941 -7.95301Q-4.58530 -9.47035 -7.37827 -9.55091Q-11.48716 -9.68519 -14.18613 -6.38197Q-16.88511 -3.07875 -17.74448 3.23229Z" fill="rgb(0, 0, 0)" transform="matrix(1 0 0 1 606.080749 425.140599)"/><path d="" fill="rgb(0, 0, 0)" transform="matrix(1 0 0 1 606.080749 425.140599)"/><path d="M40.34282 9.70446Q40.77251 5.99840 35.83110 4.33336L31.21196 2.96374Q24.84722 0.81530 25.19634 -4.20667Q25.38433 -7.83216 28.53984 -10.10145Q31.69536 -12.37074 36.04595 -12.31703Q40.31597 -12.26332 42.97466 -9.91346Q45.63335 -7.56361 45.44536 -3.64271L42.27642 -3.64271Q42.43755 -6.24769 40.65166 -7.88587Q38.86577 -9.52406 35.91167 -9.57777Q32.85015 -9.57777 30.75542 -8.14100Q28.66069 -6.70423 28.39214 -4.34095Q27.98931 -0.87660 32.63530 0.51989L35.99224 1.48668L37.79155 2.10436Q43.86089 4.38708 43.51177 9.54333Q43.29692 13.03454 40.49053 15.27697Q37.68413 17.51940 33.25298 17.78795L32.15190 17.81481Q29.22466 17.76110 26.86138 16.67345Q24.49810 15.58581 23.23589 13.62536Q21.97368 11.66491 22.13481 9.11364L25.33062 9.14049Q25.33062 11.87975 27.18364 13.46422Q29.03667 15.04870 32.28618 15.10241Q35.50884 15.10241 37.76470 13.63878Q40.02056 12.17516 40.34282 9.70446Z" fill="rgb(0, 0, 0)" transform="matrix(1 0 0 1 606.080749 425.140599)"/><path d="M61.06128 -19.21888L59.77222 -11.77992L65.59985 -11.77992L65.14331 -9.14808L59.31567 -9.14808L56.09302 10.24157L56.03931 11.90661Q56.03931 14.83385 58.72485 14.91442Q59.55737 14.94127 61.32983 14.72643L61.19556 17.35827Q59.61108 17.81481 57.97290 17.76110Q55.15308 17.70739 53.86401 15.78722Q52.57495 13.86706 52.92407 10.21471L56.11987 -9.14808L50.90991 -9.14808L51.39331 -11.77992L56.54956 -11.77992L57.86548 -19.21888Z" fill="rgb(0, 0, 0)" transform="matrix(1 0 0 1 606.080749 425.140599)"/><path d="M85.83491 17.27770Q85.70063 16.25719 85.75435 15.23668L85.99604 13.22252Q83.98188 15.39782 81.39033 16.63317Q78.79878 17.86852 75.79097 17.81481Q72.11177 17.76110 69.81562 15.49181Q67.51948 13.22252 67.76118 9.78502Q67.97603 6.91149 69.73506 4.80333Q71.49409 2.69518 74.74360 1.52697Q77.99312 0.35875 82.02144 0.35875L87.95649 0.38561L88.43989 -2.94447Q88.76216 -5.92542 87.15083 -7.72474Q85.53950 -9.52406 82.39741 -9.63148Q79.22847 -9.68519 76.87861 -8.06043Q74.52876 -6.43568 73.93794 -3.77699L70.79585 -3.77699Q71.33296 -7.59046 74.71675 -9.99403Q78.10054 -12.39759 82.71968 -12.34388Q87.20454 -12.23646 89.63496 -9.63148Q92.06538 -7.02650 91.60884 -2.86390L89.19185 11.74547L88.97700 14.08190Q88.89644 15.53209 89.19185 16.95543L89.13813 17.27770ZM76.32808 14.99499Q79.28218 15.10241 81.98115 13.58507Q84.68013 12.06774 86.45259 9.27477L87.55366 2.85631L82.42427 2.82946Q77.53657 2.82946 74.44819 4.56164Q71.35981 6.29381 71.03755 9.51647Q70.79585 11.87975 72.28633 13.41051Q73.77681 14.94127 76.32808 14.99499Z" fill="rgb(0, 0, 0)" transform="matrix(1 0 0 1 606.080749 425.140599)"/><path d="M114.90542 -9.06751Q113.85806 -9.28236 112.78384 -9.30921Q109.72231 -9.30921 107.17104 -7.44276Q104.61978 -5.57630 103.76040 -2.70277L100.32290 17.27770L97.15396 17.27770L102.20278 -11.77992L105.34487 -11.77992L104.37808 -7.16078Q105.96255 -9.73890 108.20498 -11.08167Q110.44741 -12.42445 113.13296 -12.37074Q114.07290 -12.37074 115.33511 -11.99476Z" fill="rgb(0, 0, 0)" transform="matrix(1 0 0 1 606.080749 425.140599)"/><path d="M128.50718 -19.21888L127.21812 -11.77992L133.04575 -11.77992L132.58921 -9.14808L126.76157 -9.14808L123.53892 10.24157L123.48521 11.90661Q123.48521 14.83385 126.17075 14.91442Q127.00327 14.94127 128.77573 14.72643L128.64146 17.35827Q127.05698 17.81481 125.41880 17.76110Q122.59897 17.70739 121.30991 15.78722Q120.02085 13.86706 120.36997 10.21471L123.56577 -9.14808L118.35581 -9.14808L118.83921 -11.77992L123.99546 -11.77992L125.31138 -19.21888Z" fill="rgb(0, 0, 0)" transform="matrix(1 0 0 1 606.080749 425.140599)"/><path d="M153.57622 9.70446Q154.00591 5.99840 149.06450 4.33336L144.44536 2.96374Q138.08062 0.81530 138.42974 -4.20667Q138.61772 -7.83216 141.77324 -10.10145Q144.92876 -12.37074 149.27935 -12.31703Q153.54937 -12.26332 156.20806 -9.91346Q158.86675 -7.56361 158.67876 -3.64271L155.50981 -3.64271Q155.67095 -6.24769 153.88506 -7.88587Q152.09917 -9.52406 149.14507 -9.57777Q146.08354 -9.57777 143.98882 -8.14100Q141.89409 -6.70423 141.62554 -4.34095Q141.22271 -0.87660 145.86870 0.51989L149.22563 1.48668L151.02495 2.10436Q157.09429 4.38708 156.74517 9.54333Q156.53032 13.03454 153.72393 15.27697Q150.91753 17.51940 146.48638 17.78795L145.38530 17.81481Q142.45806 17.76110 140.09478 16.67345Q137.73149 15.58581 136.46929 13.62536Q135.20708 11.66491 135.36821 9.11364L138.56401 9.14049Q138.56401 11.87975 140.41704 13.46422Q142.27007 15.04870 145.51958 15.10241Q148.74224 15.10241 150.99810 13.63878Q153.25396 12.17516 153.57622 9.70446Z" fill="rgb(0, 0, 0)" transform="matrix(1 0 0 1 606.080749 425.140599)"/><path d="" fill="rgb(0, 0, 0)" transform="matrix(1 0 0 1 606.080749 425.140599)"/><path d="M184.00239 -6.86537Q188.19185 -12.42445 193.88521 -12.31703Q198.07466 -12.20960 199.98140 -9.38978Q201.88813 -6.56996 201.32417 -1.62855L198.15522 17.27770L194.98628 17.27770L198.15522 -1.68226Q198.31636 -3.21302 198.20894 -4.63636Q197.75239 -9.41664 192.99897 -9.55091Q190.17915 -9.60462 187.73530 -7.87245Q185.29146 -6.14027 183.43843 -2.64906L180.00093 17.27770L176.83198 17.27770L184.00239 -23.97230L187.17134 -23.97230Z" fill="rgb(0, 0, 0)" transform="matrix(1 0 0 1 606.080749 425.140599)"/><path d="M218.44399 17.81481Q214.95278 17.76110 212.40151 15.86779Q209.85024 13.97448 208.65518 10.71154Q207.46011 7.44860 207.80923 3.66198L207.88979 2.74889Q208.26577 -1.27943 210.27993 -4.91834Q212.29409 -8.55726 215.38247 -10.47743Q218.47085 -12.39759 221.98892 -12.31703Q225.23843 -12.26332 227.48086 -10.54457Q229.72329 -8.82582 230.74380 -5.76429Q231.76431 -2.70277 231.38833 1.00329L231.17349 2.96374L211.05874 2.96374L210.97817 3.60827Q210.57534 6.53551 211.40786 9.20763Q212.24038 11.87975 214.13369 13.45080Q216.02700 15.02184 218.68569 15.07555Q221.26382 15.15612 223.33169 14.08190Q225.39956 13.00768 227.14517 11.20836L229.02505 12.73913Q227.06460 15.26354 224.36563 16.56603Q221.66665 17.86852 218.44399 17.81481ZM221.82778 -9.57777Q218.33657 -9.71205 215.57046 -7.10707Q212.80435 -4.50209 211.40786 0.22448L228.27310 0.25133L228.35366 -0.15150Q228.83706 -3.96498 227.01089 -6.71766Q225.18472 -9.47035 221.82778 -9.57777Z" fill="rgb(0, 0, 0)" transform="matrix(1 0 0 1 606.080749 425.140599)"/><path d="M253.04673 -9.06751Q251.99937 -9.28236 250.92515 -9.30921Q247.86362 -9.30921 245.31235 -7.44276Q242.76108 -5.57630 241.90171 -2.70277L238.46421 17.27770L235.29526 17.27770L240.34409 -11.77992L243.48618 -11.77992L242.51938 -7.16078Q244.10386 -9.73890 246.34629 -11.08167Q248.58872 -12.42445 251.27427 -12.37074Q252.21421 -12.37074 253.47642 -11.99476Z" fill="rgb(0, 0, 0)" transform="matrix(1 0 0 1 606.080749 425.140599)"/><path d="M265.06401 17.81481Q261.57280 17.76110 259.02153 15.86779Q256.47026 13.97448 255.27520 10.71154Q254.08013 7.44860 254.42925 3.66198L254.50981 2.74889Q254.88579 -1.27943 256.89995 -4.91834Q258.91411 -8.55726 262.00249 -10.47743Q265.09087 -12.39759 268.60894 -12.31703Q271.85845 -12.26332 274.10088 -10.54457Q276.34331 -8.82582 277.36382 -5.76429Q278.38433 -2.70277 278.00835 1.00329L277.79351 2.96374L257.67876 2.96374L257.59819 3.60827Q257.19536 6.53551 258.02788 9.20763Q258.86040 11.87975 260.75371 13.45080Q262.64702 15.02184 265.30571 15.07555Q267.88384 15.15612 269.95171 14.08190Q272.01958 13.00768 273.76519 11.20836L275.64507 12.73913Q273.68462 15.26354 270.98564 16.56603Q268.28667 17.86852 265.06401 17.81481ZM268.44780 -9.57777Q264.95659 -9.71205 262.19048 -7.10707Q259.42437 -4.50209 258.02788 0.22448L274.89312 0.25133L274.97368 -0.15150Q275.45708 -3.96498 273.63091 -6.71766Q271.80474 -9.47035 268.44780 -9.57777Z" fill="rgb(0, 0, 0)" transform="matrix(1 0 0 1 606.080749 425.140599)"/></g></g>
<g style="" id="7084e754-9303-40bf-a6b2-dac1703513d1">
<g style=""><path d="M-254.99321 7.47545Q-254.37554 2.42663 -260.39116 0.06334L-265.52056 -1.78968L-267.18560 -2.46107Q-274.81255 -5.71058 -274.24858 -12.04847Q-274.00688 -15.16371 -272.04644 -17.52699Q-270.08599 -19.89027 -266.87676 -21.16590Q-263.66753 -22.44154 -260.06890 -22.36097Q-256.60454 -22.28041 -253.87871 -20.76307Q-251.15288 -19.24574 -249.79668 -16.61390Q-248.44048 -13.98207 -248.73589 -10.67884L-252.03911 -10.67884Q-251.66313 -14.65345 -253.90557 -17.04359Q-256.14800 -19.43373 -260.23003 -19.54115Q-264.47319 -19.59486 -267.49443 -17.59413Q-270.51567 -15.59339 -270.94536 -12.12904Q-271.29448 -9.36292 -269.32061 -7.41590Q-267.34673 -5.46888 -262.45903 -4.01869Q-256.22856 -2.03138 -253.79814 0.73473Q-251.36772 3.50084 -251.68999 7.39489Q-251.98540 10.61754 -253.94585 12.99425Q-255.90630 15.37096 -259.18267 16.63317Q-262.45903 17.89538 -266.21880 17.81481Q-269.95171 17.78795 -272.94609 16.28405Q-275.94048 14.78014 -277.43096 12.16173Q-278.92144 9.54333 -278.62603 6.10583L-275.34966 6.10583Q-275.75249 10.18786 -273.16094 12.59142Q-270.56938 14.99499 -266.05767 15.04870Q-261.54595 15.10241 -258.47100 13.00768Q-255.39604 10.91295 -254.99321 7.47545Z" fill="rgb(255, 255, 255)" transform="matrix(1 0 0 1 739.44733 969.754807)"/><path d="M-238.49106 -11.77992L-239.40415 -7.05335Q-235.48325 -12.42445 -229.54819 -12.31703Q-226.48667 -12.26332 -224.45908 -10.78626Q-222.43149 -9.30921 -221.94810 -6.67738Q-219.96079 -9.38978 -217.31553 -10.88026Q-214.67026 -12.37074 -211.55503 -12.31703Q-207.41929 -12.23646 -205.41855 -9.59120Q-203.41782 -6.94593 -203.76694 -2.27308L-203.82065 -1.65541L-207.01646 17.27770L-210.21226 17.27770L-207.04331 -1.70912Q-206.88218 -3.29359 -207.01646 -4.71693Q-207.55356 -9.47035 -212.44126 -9.55091Q-215.71763 -9.60462 -218.47031 -7.41590Q-221.22300 -5.22718 -221.92124 -1.95082L-225.25132 17.27770L-228.44712 17.27770L-225.22446 -1.95082Q-224.44565 -9.36292 -230.67612 -9.55091Q-233.76450 -9.60462 -236.42319 -7.61732Q-239.08188 -5.63001 -239.99497 -2.67591L-243.43247 17.27770L-246.62827 17.27770L-241.57944 -11.77992Z" fill="rgb(255, 255, 255)" transform="matrix(1 0 0 1 739.44733 969.754807)"/><path d="M-180.28237 17.27770Q-180.41665 16.25719 -180.36294 15.23668L-180.12124 13.22252Q-182.13540 15.39782 -184.72695 16.63317Q-187.31851 17.86852 -190.32632 17.81481Q-194.00552 17.76110 -196.30166 15.49181Q-198.59780 13.22252 -198.35610 9.78502Q-198.14126 6.91149 -196.38223 4.80333Q-194.62319 2.69518 -191.37368 1.52697Q-188.12417 0.35875 -184.09585 0.35875L-178.16079 0.38561L-177.67739 -2.94447Q-177.35513 -5.92542 -178.96646 -7.72474Q-180.57778 -9.52406 -183.71987 -9.63148Q-186.88882 -9.68519 -189.23867 -8.06043Q-191.58853 -6.43568 -192.17935 -3.77699L-195.32144 -3.77699Q-194.78433 -7.59046 -191.40054 -9.99403Q-188.01675 -12.39759 -183.39761 -12.34388Q-178.91274 -12.23646 -176.48232 -9.63148Q-174.05190 -7.02650 -174.50845 -2.86390L-176.92544 11.74547L-177.14028 14.08190Q-177.22085 15.53209 -176.92544 16.95543L-176.97915 17.27770ZM-189.78921 14.99499Q-186.83511 15.10241 -184.13613 13.58507Q-181.43716 12.06774 -179.66470 9.27477L-178.56362 2.85631L-183.69302 2.82946Q-188.58071 2.82946 -191.66909 4.56164Q-194.75747 6.29381 -195.07974 9.51647Q-195.32144 11.87975 -193.83096 13.41051Q-192.34048 14.94127 -189.78921 14.99499Z" fill="rgb(255, 255, 255)" transform="matrix(1 0 0 1 739.44733 969.754807)"/><path d="M-151.21187 -9.06751Q-152.25923 -9.28236 -153.33345 -9.30921Q-156.39497 -9.30921 -158.94624 -7.44276Q-161.49751 -5.57630 -162.35688 -2.70277L-165.79438 17.27770L-168.96333 17.27770L-163.91450 -11.77992L-160.77241 -11.77992L-161.73921 -7.16078Q-160.15474 -9.73890 -157.91230 -11.08167Q-155.66987 -12.42445 -152.98433 -12.37074Q-152.04438 -12.37074 -150.78218 -11.99476Z" fill="rgb(255, 255, 255)" transform="matrix(1 0 0 1 739.44733 969.754807)"/><path d="M-137.61011 -19.21888L-138.89917 -11.77992L-133.07153 -11.77992L-133.52808 -9.14808L-139.35571 -9.14808L-142.57837 10.24157L-142.63208 11.90661Q-142.63208 14.83385 -139.94653 14.91442Q-139.11401 14.94127 -137.34155 14.72643L-137.47583 17.35827Q-139.06030 17.81481 -140.69849 17.76110Q-143.51831 17.70739 -144.80737 15.78722Q-146.09644 13.86706 -145.74731 10.21471L-142.55151 -9.14808L-147.76147 -9.14808L-147.27808 -11.77992L-142.12183 -11.77992L-140.80591 -19.21888Z" fill="rgb(255, 255, 255)" transform="matrix(1 0 0 1 739.44733 969.754807)"/><path d="" fill="rgb(255, 255, 255)" transform="matrix(1 0 0 1 739.44733 969.754807)"/><path d="M-113.54868 17.27770L-116.77134 17.27770L-109.60093 -23.97230L-106.37827 -23.97230Z" fill="rgb(255, 255, 255)" transform="matrix(1 0 0 1 739.44733 969.754807)"/><path d="M-100.77944 17.27770L-104.00210 17.27770L-98.92642 -11.77992L-95.73062 -11.77992ZM-98.04019 -20.18568Q-97.90591 -21.93128 -95.73062 -22.38783Q-94.68325 -22.19984 -94.24014 -21.72987Q-93.79702 -21.25990 -93.66274 -20.18568Q-93.93130 -19.16517 -94.44155 -18.69520Q-94.95181 -18.22523 -95.97231 -18.01039Q-98.14761 -18.33265 -98.04019 -20.18568Z" fill="rgb(255, 255, 255)" transform="matrix(1 0 0 1 739.44733 969.754807)"/><path d="M-81.86030 12.73913L-69.45308 -11.77992L-66.06929 -11.77992L-81.13521 17.27770L-83.74019 17.27770L-89.78267 -11.77992L-86.61372 -11.77992Z" fill="rgb(255, 255, 255)" transform="matrix(1 0 0 1 739.44733 969.754807)"/><path d="M-61.54468 17.27770L-64.76733 17.27770L-59.69165 -11.77992L-56.49585 -11.77992ZM-58.80542 -20.18568Q-58.67114 -21.93128 -56.49585 -22.38783Q-55.44849 -22.19984 -55.00537 -21.72987Q-54.56226 -21.25990 -54.42798 -20.18568Q-54.69653 -19.16517 -55.20679 -18.69520Q-55.71704 -18.22523 -56.73755 -18.01039Q-58.91284 -18.33265 -58.80542 -20.18568Z" fill="rgb(255, 255, 255)" transform="matrix(1 0 0 1 739.44733 969.754807)"/><path d="M-44.23687 -11.77992L-45.20366 -6.81166Q-43.27007 -9.49720 -40.73223 -10.93397Q-38.19438 -12.37074 -35.29399 -12.31703Q-31.10454 -12.20960 -29.19780 -9.38978Q-27.29106 -6.56996 -27.85503 -1.62855L-31.02397 17.27770L-34.19292 17.27770L-31.02397 -1.68226Q-30.86284 -3.21302 -30.97026 -4.63636Q-31.42681 -9.41664 -36.18022 -9.55091Q-39.00005 -9.60462 -41.44390 -7.87245Q-43.88774 -6.14027 -45.74077 -2.64906L-49.17827 17.27770L-52.34722 17.27770L-47.29839 -11.77992Z" fill="rgb(255, 255, 255)" transform="matrix(1 0 0 1 739.44733 969.754807)"/><path d="M-7.75425 -12.34388Q-5.14927 -12.26332 -3.00083 -11.10853Q-0.85239 -9.95375 0.38296 -7.59046L1.37661 -11.77992L4.35757 -11.77992L-0.53013 16.76745Q-1.04038 20.41979 -2.83970 23.21276Q-4.63901 26.00573 -7.44541 27.49621Q-10.25181 28.98668 -13.68931 28.87926Q-16.42856 28.82555 -18.92612 27.50963Q-21.45054 26.16686 -22.98130 23.77672L-20.99399 21.89684Q-18.22788 26.05944 -13.76987 26.16686Q-9.79526 26.27428 -7.12314 23.76330Q-4.45103 21.25231 -3.75278 16.92858L-3.05454 13.54479Q-6.92173 17.97594 -12.37339 17.81481Q-16.45542 17.70739 -18.72471 14.68615Q-20.99399 11.66491 -21.10142 6.45495Q-21.26255 1.64782 -19.49009 -3.05189Q-17.71763 -7.75160 -14.66953 -10.10145Q-11.62144 -12.45130 -7.75425 -12.34388ZM-17.74448 3.23229L-17.90562 5.72985Q-17.98618 10.13415 -16.37485 12.53771Q-14.76353 14.94127 -11.62144 15.04870Q-8.93589 15.15612 -6.59946 13.78649Q-4.26304 12.41686 -2.57114 9.73131L-0.28843 -3.83070Q-1.01353 -6.43568 -2.79941 -7.95301Q-4.58530 -9.47035 -7.37827 -9.55091Q-11.48716 -9.68519 -14.18613 -6.38197Q-16.88511 -3.07875 -17.74448 3.23229Z" fill="rgb(255, 255, 255)" transform="matrix(1 0 0 1 739.44733 969.754807)"/><path d="" fill="rgb(255, 255, 255)" transform="matrix(1 0 0 1 739.44733 969.754807)"/><path d="M40.34282 9.70446Q40.77251 5.99840 35.83110 4.33336L31.21196 2.96374Q24.84722 0.81530 25.19634 -4.20667Q25.38433 -7.83216 28.53984 -10.10145Q31.69536 -12.37074 36.04595 -12.31703Q40.31597 -12.26332 42.97466 -9.91346Q45.63335 -7.56361 45.44536 -3.64271L42.27642 -3.64271Q42.43755 -6.24769 40.65166 -7.88587Q38.86577 -9.52406 35.91167 -9.57777Q32.85015 -9.57777 30.75542 -8.14100Q28.66069 -6.70423 28.39214 -4.34095Q27.98931 -0.87660 32.63530 0.51989L35.99224 1.48668L37.79155 2.10436Q43.86089 4.38708 43.51177 9.54333Q43.29692 13.03454 40.49053 15.27697Q37.68413 17.51940 33.25298 17.78795L32.15190 17.81481Q29.22466 17.76110 26.86138 16.67345Q24.49810 15.58581 23.23589 13.62536Q21.97368 11.66491 22.13481 9.11364L25.33062 9.14049Q25.33062 11.87975 27.18364 13.46422Q29.03667 15.04870 32.28618 15.10241Q35.50884 15.10241 37.76470 13.63878Q40.02056 12.17516 40.34282 9.70446Z" fill="rgb(255, 255, 255)" transform="matrix(1 0 0 1 739.44733 969.754807)"/><path d="M61.06128 -19.21888L59.77222 -11.77992L65.59985 -11.77992L65.14331 -9.14808L59.31567 -9.14808L56.09302 10.24157L56.03931 11.90661Q56.03931 14.83385 58.72485 14.91442Q59.55737 14.94127 61.32983 14.72643L61.19556 17.35827Q59.61108 17.81481 57.97290 17.76110Q55.15308 17.70739 53.86401 15.78722Q52.57495 13.86706 52.92407 10.21471L56.11987 -9.14808L50.90991 -9.14808L51.39331 -11.77992L56.54956 -11.77992L57.86548 -19.21888Z" fill="rgb(255, 255, 255)" transform="matrix(1 0 0 1 739.44733 969.754807)"/><path d="M85.83491 17.27770Q85.70063 16.25719 85.75435 15.23668L85.99604 13.22252Q83.98188 15.39782 81.39033 16.63317Q78.79878 17.86852 75.79097 17.81481Q72.11177 17.76110 69.81562 15.49181Q67.51948 13.22252 67.76118 9.78502Q67.97603 6.91149 69.73506 4.80333Q71.49409 2.69518 74.74360 1.52697Q77.99312 0.35875 82.02144 0.35875L87.95649 0.38561L88.43989 -2.94447Q88.76216 -5.92542 87.15083 -7.72474Q85.53950 -9.52406 82.39741 -9.63148Q79.22847 -9.68519 76.87861 -8.06043Q74.52876 -6.43568 73.93794 -3.77699L70.79585 -3.77699Q71.33296 -7.59046 74.71675 -9.99403Q78.10054 -12.39759 82.71968 -12.34388Q87.20454 -12.23646 89.63496 -9.63148Q92.06538 -7.02650 91.60884 -2.86390L89.19185 11.74547L88.97700 14.08190Q88.89644 15.53209 89.19185 16.95543L89.13813 17.27770ZM76.32808 14.99499Q79.28218 15.10241 81.98115 13.58507Q84.68013 12.06774 86.45259 9.27477L87.55366 2.85631L82.42427 2.82946Q77.53657 2.82946 74.44819 4.56164Q71.35981 6.29381 71.03755 9.51647Q70.79585 11.87975 72.28633 13.41051Q73.77681 14.94127 76.32808 14.99499Z" fill="rgb(255, 255, 255)" transform="matrix(1 0 0 1 739.44733 969.754807)"/><path d="M114.90542 -9.06751Q113.85806 -9.28236 112.78384 -9.30921Q109.72231 -9.30921 107.17104 -7.44276Q104.61978 -5.57630 103.76040 -2.70277L100.32290 17.27770L97.15396 17.27770L102.20278 -11.77992L105.34487 -11.77992L104.37808 -7.16078Q105.96255 -9.73890 108.20498 -11.08167Q110.44741 -12.42445 113.13296 -12.37074Q114.07290 -12.37074 115.33511 -11.99476Z" fill="rgb(255, 255, 255)" transform="matrix(1 0 0 1 739.44733 969.754807)"/><path d="M128.50718 -19.21888L127.21812 -11.77992L133.04575 -11.77992L132.58921 -9.14808L126.76157 -9.14808L123.53892 10.24157L123.48521 11.90661Q123.48521 14.83385 126.17075 14.91442Q127.00327 14.94127 128.77573 14.72643L128.64146 17.35827Q127.05698 17.81481 125.41880 17.76110Q122.59897 17.70739 121.30991 15.78722Q120.02085 13.86706 120.36997 10.21471L123.56577 -9.14808L118.35581 -9.14808L118.83921 -11.77992L123.99546 -11.77992L125.31138 -19.21888Z" fill="rgb(255, 255, 255)" transform="matrix(1 0 0 1 739.44733 969.754807)"/><path d="M153.57622 9.70446Q154.00591 5.99840 149.06450 4.33336L144.44536 2.96374Q138.08062 0.81530 138.42974 -4.20667Q138.61772 -7.83216 141.77324 -10.10145Q144.92876 -12.37074 149.27935 -12.31703Q153.54937 -12.26332 156.20806 -9.91346Q158.86675 -7.56361 158.67876 -3.64271L155.50981 -3.64271Q155.67095 -6.24769 153.88506 -7.88587Q152.09917 -9.52406 149.14507 -9.57777Q146.08354 -9.57777 143.98882 -8.14100Q141.89409 -6.70423 141.62554 -4.34095Q141.22271 -0.87660 145.86870 0.51989L149.22563 1.48668L151.02495 2.10436Q157.09429 4.38708 156.74517 9.54333Q156.53032 13.03454 153.72393 15.27697Q150.91753 17.51940 146.48638 17.78795L145.38530 17.81481Q142.45806 17.76110 140.09478 16.67345Q137.73149 15.58581 136.46929 13.62536Q135.20708 11.66491 135.36821 9.11364L138.56401 9.14049Q138.56401 11.87975 140.41704 13.46422Q142.27007 15.04870 145.51958 15.10241Q148.74224 15.10241 150.99810 13.63878Q153.25396 12.17516 153.57622 9.70446Z" fill="rgb(255, 255, 255)" transform="matrix(1 0 0 1 739.44733 969.754807)"/><path d="" fill="rgb(255, 255, 255)" transform="matrix(1 0 0 1 739.44733 969.754807)"/><path d="M184.00239 -6.86537Q188.19185 -12.42445 193.88521 -12.31703Q198.07466 -12.20960 199.98140 -9.38978Q201.88813 -6.56996 201.32417 -1.62855L198.15522 17.27770L194.98628 17.27770L198.15522 -1.68226Q198.31636 -3.21302 198.20894 -4.63636Q197.75239 -9.41664 192.99897 -9.55091Q190.17915 -9.60462 187.73530 -7.87245Q185.29146 -6.14027 183.43843 -2.64906L180.00093 17.27770L176.83198 17.27770L184.00239 -23.97230L187.17134 -23.97230Z" fill="rgb(255, 255, 255)" transform="matrix(1 0 0 1 739.44733 969.754807)"/><path d="M218.44399 17.81481Q214.95278 17.76110 212.40151 15.86779Q209.85024 13.97448 208.65518 10.71154Q207.46011 7.44860 207.80923 3.66198L207.88979 2.74889Q208.26577 -1.27943 210.27993 -4.91834Q212.29409 -8.55726 215.38247 -10.47743Q218.47085 -12.39759 221.98892 -12.31703Q225.23843 -12.26332 227.48086 -10.54457Q229.72329 -8.82582 230.74380 -5.76429Q231.76431 -2.70277 231.38833 1.00329L231.17349 2.96374L211.05874 2.96374L210.97817 3.60827Q210.57534 6.53551 211.40786 9.20763Q212.24038 11.87975 214.13369 13.45080Q216.02700 15.02184 218.68569 15.07555Q221.26382 15.15612 223.33169 14.08190Q225.39956 13.00768 227.14517 11.20836L229.02505 12.73913Q227.06460 15.26354 224.36563 16.56603Q221.66665 17.86852 218.44399 17.81481ZM221.82778 -9.57777Q218.33657 -9.71205 215.57046 -7.10707Q212.80435 -4.50209 211.40786 0.22448L228.27310 0.25133L228.35366 -0.15150Q228.83706 -3.96498 227.01089 -6.71766Q225.18472 -9.47035 221.82778 -9.57777Z" fill="rgb(255, 255, 255)" transform="matrix(1 0 0 1 739.44733 969.754807)"/><path d="M253.04673 -9.06751Q251.99937 -9.28236 250.92515 -9.30921Q247.86362 -9.30921 245.31235 -7.44276Q242.76108 -5.57630 241.90171 -2.70277L238.46421 17.27770L235.29526 17.27770L240.34409 -11.77992L243.48618 -11.77992L242.51938 -7.16078Q244.10386 -9.73890 246.34629 -11.08167Q248.58872 -12.42445 251.27427 -12.37074Q252.21421 -12.37074 253.47642 -11.99476Z" fill="rgb(255, 255, 255)" transform="matrix(1 0 0 1 739.44733 969.754807)"/><path d="M265.06401 17.81481Q261.57280 17.76110 259.02153 15.86779Q256.47026 13.97448 255.27520 10.71154Q254.08013 7.44860 254.42925 3.66198L254.50981 2.74889Q254.88579 -1.27943 256.89995 -4.91834Q258.91411 -8.55726 262.00249 -10.47743Q265.09087 -12.39759 268.60894 -12.31703Q271.85845 -12.26332 274.10088 -10.54457Q276.34331 -8.82582 277.36382 -5.76429Q278.38433 -2.70277 278.00835 1.00329L277.79351 2.96374L257.67876 2.96374L257.59819 3.60827Q257.19536 6.53551 258.02788 9.20763Q258.86040 11.87975 260.75371 13.45080Q262.64702 15.02184 265.30571 15.07555Q267.88384 15.15612 269.95171 14.08190Q272.01958 13.00768 273.76519 11.20836L275.64507 12.73913Q273.68462 15.26354 270.98564 16.56603Q268.28667 17.86852 265.06401 17.81481ZM268.44780 -9.57777Q264.95659 -9.71205 262.19048 -7.10707Q259.42437 -4.50209 258.02788 0.22448L274.89312 0.25133L274.97368 -0.15150Q275.45708 -3.96498 273.63091 -6.71766Q271.80474 -9.47035 268.44780 -9.57777Z" fill="rgb(255, 255, 255)" transform="matrix(1 0 0 1 739.44733 969.754807)"/></g></g>

  </svg>